<?xml version="1.0" standalone="no"?>
<!DOCTYPE svg PUBLIC "-//W3C//DTD SVG 20010904//EN"
 "http://www.w3.org/TR/2001/REC-SVG-20010904/DTD/svg10.dtd">
<svg version="1.0" xmlns="http://www.w3.org/2000/svg"
 width="360.000000pt" height="360.000000pt" viewBox="0 0 360.000000 360.000000"
 preserveAspectRatio="xMidYMid meet">

<g transform="translate(0.000000,360.000000) scale(0.100000,-0.100000)"
fill="#000000" stroke="none">
<path d="M2255 2419 c-27 -6 -77 -19 -110 -29 l-60 -20 2 -122 2 -123 -62 -58
c-52 -49 -53 -51 -8 -13 67 58 178 113 256 127 33 7 66 13 73 15 9 2 12 35 12
119 l0 115 -27 -1 c-16 -1 -50 -5 -78 -10z"/>
<path d="M2480 2311 l0 -119 51 -11 c162 -35 349 -199 398 -349 l14 -42 124 0
c67 0 123 4 123 8 0 21 -44 142 -72 197 -41 81 -84 139 -160 211 -124 120
-263 189 -440 219 l-38 6 0 -120z"/>
<path d="M1590 2118 c0 -145 -2 -294 -5 -333 -6 -83 5 -66 29 45 23 103 82
221 155 307 l61 73 0 85 0 85 -120 0 -120 0 0 -262z"/>
<path d="M1823 1610 c0 -36 2 -50 4 -32 2 17 2 47 0 65 -2 17 -4 3 -4 -33z"/>
<path d="M1822 1449 c-13 -109 -38 -190 -56 -183 -6 2 -21 -4 -32 -15 -11 -10
-30 -22 -42 -25 -12 -4 -22 -13 -22 -21 0 -8 -8 -16 -19 -20 -17 -5 -35 -19
-94 -70 -10 -9 -31 -18 -47 -22 -16 -3 -28 -9 -25 -13 6 -9 -19 -20 -45 -20
-10 0 -25 -6 -32 -13 -16 -16 -122 -57 -163 -64 -16 -3 -48 -11 -70 -19 -22
-7 -52 -14 -67 -14 -16 0 -28 -4 -28 -9 0 -5 -15 -11 -32 -15 -115 -20 -215
-33 -228 -29 -8 2 1 -5 21 -16 98 -55 307 -78 439 -50 160 34 331 149 420 282
14 20 28 37 32 37 3 0 48 -42 100 -92 107 -106 205 -168 332 -207 71 -22 100
-25 231 -26 130 0 160 3 225 23 271 86 470 279 549 536 11 37 21 70 21 72 0 2
-55 4 -122 4 l-123 0 -35 -78 c-27 -61 -50 -93 -110 -153 -117 -117 -239 -169
-400 -169 -164 0 -283 50 -400 169 -84 84 -133 166 -153 257 l-13 58 -12 -95z"/>
<path d="M1248 1063 c7 -3 16 -2 19 1 4 3 -2 6 -13 5 -11 0 -14 -3 -6 -6z"/>
<path d="M1198 1053 c6 -2 18 -2 25 0 6 3 1 5 -13 5 -14 0 -19 -2 -12 -5z"/>
</g>
</svg>
