<?xml version="1.0" standalone="no"?>
<!DOCTYPE svg PUBLIC "-//W3C//DTD SVG 20010904//EN"
 "http://www.w3.org/TR/2001/REC-SVG-20010904/DTD/svg10.dtd">
<svg version="1.0" xmlns="http://www.w3.org/2000/svg"
 width="1623.000000pt" height="838.000000pt" viewBox="0 0 1623.000000 838.000000"
 preserveAspectRatio="xMidYMid meet">

<g transform="translate(0.000000,838.000000) scale(0.100000,-0.100000)"
fill="#000000" stroke="none">
<path d="M8581 7048 c-12 -29 -27 -61 -32 -70 -5 -10 -9 -24 -9 -32 0 -8 -5
-16 -12 -18 -9 -3 -12 -27 -10 -78 2 -41 4 -75 5 -76 1 -2 21 0 45 3 l42 6 0
158 c0 88 -1 159 -3 159 -2 0 -14 -24 -26 -52z"/>
<path d="M7440 5111 c-20 -15 -48 -19 -142 -23 -92 -3 -121 -8 -136 -21 -14
-13 -38 -17 -88 -18 -38 0 -87 -5 -109 -11 -38 -10 -70 -13 -280 -22 -49 -2
-100 -8 -113 -13 -21 -8 -14 -12 55 -35 116 -40 171 -48 309 -48 141 0 241 17
351 60 71 27 210 107 231 133 18 21 -49 20 -78 -2z"/>
</g>
</svg>
